<?xml version="1.0" standalone="no"?>
<!DOCTYPE svg PUBLIC "-//W3C//DTD SVG 20010904//EN"
 "http://www.w3.org/TR/2001/REC-SVG-20010904/DTD/svg10.dtd">
<svg version="1.0" xmlns="http://www.w3.org/2000/svg"
 width="512.000000pt" height="512.000000pt" viewBox="0 0 512.000000 512.000000"
 preserveAspectRatio="xMidYMid meet">
<metadata>
Created by potrace 1.14, written by Peter Selinger 2001-2017
</metadata>
<g transform="translate(0.000000,512.000000) scale(0.100000,-0.100000)"
fill="#000000" stroke="none">
<path d="M2106 4533 c-9 -26 -13 -50 -9 -54 5 -4 67 -27 140 -52 l132 -46 11
35 c7 20 10 37 8 39 -9 8 -249 125 -257 125 -5 0 -16 -21 -25 -47z"/>
<path d="M714 4534 c-104 -32 -192 -127 -230 -249 -24 -76 -29 -236 -10 -318
43 -181 147 -276 314 -285 98 -5 154 12 214 66 21 19 40 33 41 31 2 -2 9 -23
16 -46 12 -42 13 -43 56 -43 l45 0 0 225 0 225 -175 0 -175 0 0 -75 0 -75 80
0 80 0 0 -27 c-1 -98 -128 -158 -218 -103 -93 57 -122 313 -51 452 58 114 208
102 254 -21 l20 -53 63 6 c118 12 124 14 116 50 -21 98 -93 189 -182 228 -61
27 -189 33 -258 12z"/>
<path d="M3800 4463 l0 -88 87 2 88 1 3 86 3 86 -91 0 -90 0 0 -87z"/>
<path d="M3470 4398 l0 -142 -27 26 c-81 77 -225 60 -293 -33 -45 -62 -63
-137 -63 -254 2 -200 69 -303 204 -313 74 -5 110 9 154 61 l35 41 0 -47 0 -47
85 0 85 0 0 425 0 425 -90 0 -90 0 0 -142z m-26 -231 c18 -24 21 -45 24 -149
5 -162 -16 -208 -95 -208 -68 0 -95 55 -95 190 1 101 10 141 45 178 31 33 92
28 121 -11z"/>
<path d="M2177 4320 c-60 -15 -113 -47 -146 -87 -26 -32 -49 -89 -39 -98 1 -1
40 -6 84 -10 l81 -7 7 26 c8 32 60 66 99 66 62 0 97 -35 97 -101 0 -25 -2 -26
-101 -38 -115 -14 -169 -31 -217 -68 -101 -77 -91 -245 18 -300 90 -46 206
-26 275 47 l30 32 5 -44 5 -43 85 -3 85 -3 -3 253 c-4 299 -6 306 -95 352 -46
24 -70 29 -144 32 -48 2 -105 -1 -126 -6z m183 -375 c0 -94 -58 -162 -128
-151 -45 7 -60 21 -68 62 -11 58 33 102 123 123 71 17 73 16 73 -34z"/>
<path d="M2919 4303 c-17 -15 -38 -42 -45 -60 -8 -18 -16 -33 -18 -33 -3 0 -4
24 -3 53 l2 52 -82 3 -83 3 0 -316 0 -315 90 0 90 0 0 168 c1 219 20 266 118
287 l32 7 0 89 0 89 -34 0 c-23 0 -45 -9 -67 -27z"/>
<path d="M4307 4320 c-90 -23 -168 -87 -182 -150 -4 -17 -5 -33 -3 -35 1 -1
40 -6 84 -10 l81 -7 7 26 c8 32 60 66 99 66 62 0 97 -35 97 -101 0 -25 -2 -26
-101 -38 -162 -20 -234 -56 -270 -135 -61 -134 24 -256 179 -256 72 0 120 20
167 70 l30 32 5 -44 5 -43 85 -3 85 -3 -3 253 c-4 299 -6 306 -95 352 -46 24
-70 29 -144 32 -48 2 -105 -1 -126 -6z m183 -375 c0 -95 -58 -162 -129 -151
-44 7 -60 23 -67 68 -9 50 32 93 106 112 88 23 90 23 90 -29z"/>
<path d="M1322 4051 c3 -255 4 -271 24 -298 39 -52 81 -73 147 -73 73 0 132
26 165 72 l22 33 0 -48 0 -47 85 0 85 0 0 315 0 315 -89 0 -90 0 -3 -219 c-3
-202 -5 -221 -23 -241 -43 -47 -113 -50 -134 -4 -7 16 -11 102 -11 244 l0 220
-90 0 -91 0 3 -269z"/>
<path d="M3800 4005 l0 -315 90 0 90 0 0 315 0 315 -90 0 -90 0 0 -315z"/>
<path d="M702 2873 l3 -328 29 -58 c53 -109 156 -153 338 -145 89 4 112 9 163
34 72 35 119 93 134 164 7 31 11 173 11 355 l0 305 -85 0 -85 0 0 -300 c0
-343 -3 -360 -67 -386 -25 -11 -58 -15 -100 -12 -53 3 -68 9 -91 31 l-27 27
-5 318 -5 317 -108 3 -108 3 3 -328z"/>
<path d="M1970 2775 l0 -425 49 0 c48 0 48 0 65 45 10 25 21 45 24 45 4 0 16
-13 27 -29 35 -53 86 -74 169 -69 59 3 81 8 115 31 89 59 127 163 119 327 -7
144 -52 229 -143 271 -79 37 -170 19 -218 -42 l-27 -34 0 153 0 152 -90 0 -90
0 0 -425z m339 71 c29 -23 41 -75 41 -183 0 -122 -15 -169 -63 -191 -40 -19
-92 0 -114 41 -21 41 -29 176 -14 249 11 53 36 89 71 101 19 6 61 -2 79 -17z"/>
<path d="M1775 2968 c-15 -12 -36 -40 -46 -62 l-19 -41 0 58 0 57 -85 0 -85 0
0 -315 0 -315 90 0 90 0 0 153 c0 226 24 286 120 302 l40 7 0 89 0 89 -39 0
c-24 0 -48 -8 -66 -22z"/>
<path d="M2827 2980 c-90 -23 -168 -87 -182 -150 -4 -17 -5 -33 -3 -35 1 -1
40 -6 86 -10 70 -6 82 -5 82 8 0 29 44 67 82 74 71 11 118 -28 118 -96 l0 -28
-98 -11 c-159 -18 -232 -54 -273 -134 -16 -32 -20 -54 -17 -98 7 -104 75 -159
196 -160 72 0 109 15 165 68 l37 36 0 -47 0 -47 88 0 87 0 -3 242 c-1 134 -5
253 -7 265 -8 36 -61 89 -108 108 -49 20 -194 29 -250 15z m183 -372 c-1 -120
-108 -201 -175 -133 -56 55 -14 133 85 159 87 23 90 22 90 -26z"/>
<path d="M3604 2979 c-31 -9 -94 -69 -94 -89 0 -6 -3 -10 -7 -10 -5 0 -8 21
-8 47 l0 48 -85 0 -85 0 -3 -312 -2 -313 94 0 95 0 3 219 c3 214 4 220 26 244
49 52 117 40 139 -23 8 -22 12 -108 12 -237 l1 -203 90 0 90 0 0 228 c-1 244
-7 299 -37 341 -43 59 -143 85 -229 60z"/>
<path d="M4187 2980 c-81 -21 -137 -61 -168 -122 -26 -50 -24 -68 5 -68 12 0
50 -3 83 -6 59 -6 60 -6 67 20 10 40 61 68 116 63 54 -6 80 -34 80 -87 l0 -38
-67 -7 c-179 -18 -267 -58 -304 -138 -60 -134 25 -257 178 -257 77 0 117 16
163 64 l35 37 5 -43 5 -43 90 -3 90 -3 -5 248 c-6 296 -10 309 -103 357 -46
24 -70 29 -144 32 -48 2 -105 -1 -126 -6z m183 -375 c0 -25 -6 -61 -14 -80
-15 -35 -67 -75 -98 -75 -32 0 -67 23 -79 52 -24 58 17 109 108 134 80 21 83
20 83 -31z"/>
<path d="M7 1733 c-4 -3 -7 -199 -7 -435 l0 -428 435 0 435 0 0 -435 0 -435
435 0 435 0 0 435 0 435 435 0 435 0 0 -435 0 -435 435 0 435 0 0 435 0 435
430 0 430 0 2 431 c2 237 1 433 -1 435 -2 2 -197 4 -433 4 l-428 0 0 -435 0
-435 -435 0 -435 0 -2 433 -3 432 -432 3 -433 2 0 -435 0 -435 -435 0 -435 0
0 435 0 435 -428 0 c-236 0 -432 -3 -435 -7z"/>
<path d="M4350 435 l0 -435 385 0 385 0 0 435 0 435 -385 0 -385 0 0 -435z"/>
</g>
</svg>
